<svg width="100" height="100" viewBox="0 0 100 100" fill="none" xmlns="http://www.w3.org/2000/svg">
<path d="M100 50C100 77.6142 77.6142 100 50 100C22.3858 100 0 77.6142 0 50C0 22.3858 22.3858 0 50 0C77.6142 0 100 22.3858 100 50Z" fill="white"/>
<path d="M39.5605 30.2946L38.5449 33.4286H31.25C27.8027 33.4286 25 36.3114 25 39.8571V65.5714C25 69.1172 27.8027 72 31.25 72H68.75C72.1973 72 75 69.1172 75 65.5714V39.8571C75 36.3114 72.1973 33.4286 68.75 33.4286H61.4551L60.4394 30.2946C59.8047 28.3259 58.0176 27 55.9961 27H44.0039C41.9824 27 40.1953 28.3259 39.5605 30.2946ZM50 43.0714C52.4864 43.0714 54.871 44.0874 56.6291 45.8958C58.3873 47.7041 59.375 50.1568 59.375 52.7143C59.375 55.2717 58.3873 57.7244 56.6291 59.5328C54.871 61.3412 52.4864 62.3571 50 62.3571C47.5136 62.3571 45.129 61.3412 43.3709 59.5328C41.6127 57.7244 40.625 55.2717 40.625 52.7143C40.625 50.1568 41.6127 47.7041 43.3709 45.8958C45.129 44.0874 47.5136 43.0714 50 43.0714Z" fill="#FD79A8"/>
</svg>
